<?xml version="1.0" standalone="no"?>
<!DOCTYPE svg PUBLIC "-//W3C//DTD SVG 20010904//EN"
 "http://www.w3.org/TR/2001/REC-SVG-20010904/DTD/svg10.dtd">
<svg version="1.0" xmlns="http://www.w3.org/2000/svg"
 width="800.000000pt" height="800.000000pt" viewBox="0 0 800.000000 800.000000"
 preserveAspectRatio="xMidYMid meet">

<g transform="translate(0.000000,800.000000) scale(0.100000,-0.100000)"
fill="#000000" stroke="none">
<path d="M3717 7990 c-1213 -95 -2279 -698 -2985 -1687 -383 -536 -626 -1178
-709 -1873 -24 -203 -24 -658 1 -865 93 -793 384 -1488 880 -2100 125 -154
435 -461 596 -589 139 -111 383 -278 525 -358 459 -260 957 -425 1500 -495
175 -22 748 -26 915 -5 487 60 909 183 1325 387 1148 563 1969 1659 2180 2910
45 266 50 337 50 685 0 374 -10 484 -70 785 -71 356 -173 652 -340 990 -210
423 -450 751 -796 1090 -647 633 -1469 1017 -2384 1115 -135 14 -554 21 -688
10z m713 -375 c1587 -191 2867 -1391 3154 -2957 68 -367 77 -798 25 -1173 -94
-687 -406 -1365 -872 -1892 -321 -362 -670 -632 -1097 -847 -470 -238 -941
-361 -1468 -385 -1446 -66 -2779 716 -3428 2011 -454 905 -507 1975 -147 2918
284 743 795 1365 1468 1791 489 310 1050 496 1645 548 150 14 560 5 720 -14z"/>
<path d="M3336 7282 c21 -16 83 -59 137 -96 l97 -67 0 -202 -1 -202 -151 -105
-151 -105 763 -3 c420 -1 765 -1 767 1 2 2 2 101 1 219 l-3 216 -155 -129
-154 -129 -248 0 -248 0 2 216 3 217 157 92 c87 50 161 95 165 98 3 4 -225 7
-507 7 l-514 0 40 -28z"/>
<path d="M5520 7023 c0 -4 18 -76 39 -160 l39 -152 -126 -153 c-68 -84 -127
-155 -129 -157 -2 -3 -80 1 -174 8 -94 6 -173 10 -175 8 -8 -8 902 -749 968
-789 108 -64 204 -90 318 -86 77 3 106 8 152 30 62 29 130 92 158 148 77 153
25 361 -134 528 -39 41 -257 228 -485 416 -451 371 -451 371 -451 359z m538
-662 c136 -113 158 -138 173 -193 22 -83 -26 -193 -108 -250 -58 -39 -149 -51
-200 -25 -43 23 -279 218 -275 228 4 16 273 339 282 339 4 0 62 -45 128 -99z"/>
<path d="M2490 6875 c-152 -25 -317 -88 -431 -166 -176 -118 -338 -330 -399
-522 -17 -52 -21 -86 -19 -147 5 -103 36 -149 134 -200 63 -32 75 -35 174 -38
88 -3 123 1 204 22 255 66 528 259 673 477 172 259 149 504 -53 565 -70 22
-186 25 -283 9z m-124 -270 c144 -42 219 -202 165 -347 -24 -62 -88 -129 -148
-154 -58 -25 -156 -20 -219 11 -205 100 -187 412 28 486 65 22 109 24 174 4z"/>
<path d="M3920 6273 c-1041 -32 -1946 -800 -2149 -1823 -33 -166 -42 -272 -42
-465 1 -349 71 -657 220 -970 389 -816 1233 -1326 2136 -1292 477 19 911 173
1294 460 110 83 322 289 404 393 722 920 648 2211 -172 3032 -448 447 -1051
684 -1691 665z m355 -379 c757 -102 1392 -671 1585 -1419 88 -340 76 -726 -32
-1064 -260 -815 -1042 -1362 -1898 -1328 -279 12 -495 64 -745 182 -583 274
-987 820 -1080 1460 -21 143 -21 406 -1 544 96 637 485 1169 1061 1452 342
168 716 226 1110 173z"/>
<path d="M3918 5598 c-49 -28 -72 -78 -72 -150 1 -32 -3 -58 -8 -58 -18 0 -7
-60 16 -88 23 -27 24 -32 16 -93 -5 -35 -10 -67 -10 -70 0 -4 -21 -14 -46 -24
-25 -9 -62 -33 -82 -53 -28 -29 -42 -36 -68 -33 -105 9 -204 -72 -204 -167 0
-15 -11 -43 -24 -61 -30 -41 -45 -102 -56 -228 -5 -54 -14 -144 -20 -201 -13
-115 -8 -155 36 -253 l26 -56 -31 -50 c-17 -28 -31 -55 -31 -61 0 -16 -47 -45
-60 -37 -6 3 -33 40 -60 81 -51 75 -68 86 -89 60 -10 -12 -9 -20 5 -41 14 -21
14 -24 2 -20 -9 4 -23 -1 -32 -11 -15 -15 -15 -18 -1 -40 20 -30 19 -33 -5
-27 -27 7 -36 -21 -16 -52 20 -30 20 -36 1 -29 -8 4 -22 1 -30 -6 -13 -10 -12
-16 1 -43 15 -28 15 -32 0 -42 -9 -7 -16 -17 -16 -23 0 -18 20 -24 36 -11 12
10 20 7 42 -14 22 -21 31 -24 40 -15 7 7 12 19 12 27 1 12 5 10 19 -6 24 -29
49 -29 59 -3 8 20 8 20 30 -5 19 -21 26 -24 43 -14 14 7 19 17 15 31 -3 15 3
12 24 -13 27 -32 29 -33 46 -17 17 17 15 22 -40 103 -42 61 -56 89 -48 97 6 6
44 12 84 13 114 3 117 4 138 25 11 11 20 31 20 44 0 19 8 26 45 36 25 7 48 10
51 7 3 -3 1 -28 -5 -55 -21 -101 -24 -204 -7 -300 19 -110 50 -181 112 -257
61 -75 65 -104 24 -206 -56 -138 -46 -238 44 -430 45 -96 45 -96 30 -139 -18
-52 -58 -104 -119 -154 l-30 -25 140 -1 140 0 2 223 c1 122 6 235 10 251 16
53 35 -170 28 -331 l-6 -143 140 0 c141 0 165 7 116 32 -30 16 -115 115 -115
134 0 8 -5 23 -12 33 -10 16 -6 32 25 98 73 157 82 190 82 293 -1 85 -4 102
-33 163 -40 88 -35 133 26 203 88 99 129 240 118 411 -3 56 -10 123 -16 149
-6 26 -9 49 -6 51 3 3 28 0 55 -7 46 -11 51 -15 51 -39 0 -16 8 -35 18 -43 22
-20 172 -36 172 -19 0 9 6 9 23 0 12 -6 24 -13 26 -15 2 -2 -22 -42 -54 -89
-56 -81 -58 -86 -41 -103 16 -16 19 -16 40 11 22 28 23 28 29 8 7 -28 40 -27
60 2 13 18 16 19 16 5 1 -9 11 -20 23 -23 16 -6 26 -1 39 16 15 19 19 21 19 7
0 -9 10 -20 21 -23 16 -5 27 0 44 21 15 18 24 23 29 16 8 -14 46 -16 46 -4 0
5 -9 17 -20 27 -18 16 -18 19 -3 41 21 32 10 58 -22 52 l-25 -5 20 32 c18 29
18 34 5 45 -8 7 -22 10 -30 6 -19 -7 -19 -1 2 31 16 24 16 26 -2 39 -13 10
-22 11 -29 4 -22 -22 -26 -8 -6 20 18 25 19 34 10 45 -7 8 -16 15 -21 15 -5 0
-34 -36 -65 -80 -30 -44 -57 -80 -59 -80 -17 0 -55 26 -55 37 0 7 -11 31 -25
53 -14 22 -25 47 -25 56 0 9 14 58 31 108 l32 91 -12 105 c-7 58 -16 144 -21
192 -12 115 -34 200 -65 246 -14 20 -25 46 -25 58 0 96 -78 165 -186 166 -48
1 -58 4 -94 39 -22 21 -58 44 -80 50 -44 13 -45 15 -55 112 -5 46 -3 62 9 76
19 21 21 49 7 151 -6 42 -18 85 -29 100 -44 60 -153 79 -224 38z m586 -1138
c5 -5 2 -28 -8 -56 -22 -67 -20 -120 9 -182 33 -71 32 -118 -3 -159 l-28 -33
-62 18 c-61 17 -64 19 -98 81 -19 34 -37 81 -40 104 -9 64 19 144 76 219 l51
65 47 -24 c25 -13 51 -28 56 -33z m-816 -18 c36 -46 55 -80 68 -128 20 -74 13
-110 -37 -200 -28 -49 -33 -52 -92 -67 l-62 -16 -27 30 c-35 38 -37 85 -6 148
27 55 29 151 5 197 -13 26 -14 35 -4 48 12 17 86 56 98 53 4 -1 29 -30 57 -65z
m345 -957 l-6 -50 -14 50 c-10 39 -10 56 -1 79 l12 30 8 -30 c4 -16 5 -51 1
-79z m6 -275 c0 -30 -4 -64 -9 -75 -7 -18 -9 -17 -16 10 -12 39 -11 154 0 180
8 17 10 14 17 -20 4 -22 8 -65 8 -95z"/>
<path d="M6753 5707 c-67 -116 -121 -213 -120 -214 3 -2 480 87 484 90 3 4
-227 332 -235 334 -4 2 -62 -93 -129 -210z"/>
<path d="M1243 5212 c-82 -251 -148 -459 -147 -461 2 -2 56 43 121 100 158
139 147 132 184 124 l32 -7 -7 -84 c-9 -114 -31 -190 -69 -247 -97 -144 -276
-168 -395 -54 -60 57 -76 101 -76 202 0 77 4 101 31 167 47 118 129 232 248
346 l105 100 -182 61 c-100 33 -183 59 -185 57 -2 -2 12 -40 32 -85 l35 -83
-54 -73 c-101 -139 -182 -328 -217 -505 -7 -36 -13 -132 -13 -215 0 -126 3
-163 22 -228 38 -135 86 -204 172 -251 121 -66 261 -28 394 107 199 200 323
516 327 832 l2 100 70 72 c39 40 68 75 65 78 -3 3 -56 23 -118 43 l-114 38
-53 159 c-29 87 -54 159 -56 161 -2 2 -71 -202 -154 -454z"/>
<path d="M6795 5298 c-77 -28 -132 -86 -162 -172 -38 -108 -15 -403 53 -669
28 -109 28 -144 2 -161 -40 -25 -88 77 -129 278 -17 84 -20 126 -16 251 4 129
8 162 32 235 15 47 36 102 47 123 11 22 18 40 16 41 -4 3 -382 -84 -387 -89
-2 -3 18 -28 44 -57 80 -88 88 -116 96 -323 9 -242 40 -383 121 -555 51 -107
141 -202 209 -220 57 -16 109 -8 164 25 135 79 157 276 81 720 -37 210 -39
262 -11 285 58 48 125 -205 125 -472 0 -126 -15 -234 -44 -318 -8 -24 -13 -46
-11 -48 4 -4 327 67 334 74 1 1 -24 41 -58 87 l-61 84 0 124 c0 285 -85 544
-225 685 -78 79 -142 100 -220 72z"/>
<path d="M6165 2653 c-137 -124 -265 -238 -284 -255 l-35 -31 58 -174 c32 -96
56 -177 53 -180 -3 -3 -74 31 -156 76 -83 45 -155 82 -160 84 -10 2 -663 -575
-656 -581 2 -2 75 4 163 14 88 9 166 14 175 11 8 -3 73 -71 145 -151 l130
-146 -43 -170 c-42 -165 -42 -170 -20 -153 44 34 1444 1287 1441 1291 -2 1
-71 -9 -154 -23 -82 -14 -158 -25 -169 -25 -17 0 -140 128 -257 266 l-26 32
25 162 c14 90 24 166 23 170 -2 4 -115 -94 -253 -217z m131 -435 c60 -67 115
-130 121 -139 10 -14 8 -39 -11 -136 -14 -66 -28 -132 -32 -149 -6 -24 -22 16
-100 256 -52 157 -94 286 -94 288 -1 9 18 -11 116 -120z m-370 -483 c148 -69
267 -125 264 -125 -3 0 -70 -7 -149 -15 -80 -7 -148 -12 -152 -10 -17 11 -249
275 -242 275 5 0 130 -56 279 -125z"/>
<path d="M6935 2767 c-170 -96 -112 -351 84 -365 187 -13 282 211 145 340 -38
35 -74 48 -137 48 -35 0 -65 -8 -92 -23z m172 -47 c39 -23 61 -55 69 -101 l6
-34 -32 38 c-17 20 -40 37 -51 37 -13 0 -19 7 -19 23 0 59 -57 62 -124 7 -55
-46 -65 -49 -44 -17 42 63 132 86 195 47z m-74 -53 c6 -15 0 -26 -25 -45 -14
-11 -18 -10 -29 9 -10 19 -9 25 7 36 23 17 40 17 47 0z m31 -188 c22 19 21 25
-16 67 -31 35 -31 37 -13 50 28 21 48 17 80 -16 22 -23 31 -27 42 -18 21 17
23 6 6 -30 -24 -50 -69 -77 -128 -77 -85 0 -146 62 -145 147 1 33 1 33 79 -52
69 -74 81 -83 95 -71z"/>
<path d="M1580 2414 c-134 -36 -209 -132 -210 -270 -1 -146 83 -305 253 -481
132 -137 292 -239 492 -318 l80 -31 45 -87 c25 -48 48 -87 51 -87 4 0 39 43
79 95 l72 95 171 2 171 3 -380 291 c-208 160 -381 290 -383 288 -2 -2 26 -78
63 -169 65 -163 66 -166 49 -190 -21 -29 -28 -28 -142 28 -158 78 -225 168
-225 302 0 59 4 78 28 119 31 52 95 100 161 117 131 36 307 -62 442 -245 43
-58 133 -230 160 -306 8 -20 16 -30 21 -25 5 6 60 77 122 158 l112 148 -93 -6
-94 -7 -49 71 c-176 258 -474 456 -763 506 -105 18 -162 18 -233 -1z"/>
<path d="M3100 1526 c0 -3 62 -42 137 -88 121 -73 158 -103 320 -257 175 -167
183 -176 183 -213 l0 -38 -161 -107 -162 -108 261 -3 c143 -1 381 -1 528 0
l268 3 -167 108 c-226 147 -227 123 16 363 l182 181 143 77 c78 43 142 80 142
82 0 2 -380 4 -845 4 -465 0 -845 -2 -845 -4z m1030 -78 c93 -71 96 -51 -29
-180 l-74 -77 -89 82 c-48 44 -88 84 -88 88 0 8 181 149 192 149 4 0 43 -28
88 -62z"/>
</g>
</svg>
