<?xml version="1.0" standalone="no"?>
<!DOCTYPE svg PUBLIC "-//W3C//DTD SVG 20010904//EN"
 "http://www.w3.org/TR/2001/REC-SVG-20010904/DTD/svg10.dtd">
<svg version="1.0" xmlns="http://www.w3.org/2000/svg"
 width="760.000000pt" height="480.000000pt" viewBox="0 0 760.000000 480.000000"
 preserveAspectRatio="xMidYMid meet">

<g transform="translate(0.000000,480.000000) scale(0.100000,-0.100000)"
fill="#000000" stroke="none">
<path d="M2749 3177 c-102 -38 -159 -125 -159 -244 0 -47 -2 -53 -21 -53 -15
0 -19 -5 -15 -17 25 -83 36 -163 36 -280 l0 -133 85 0 85 0 0 130 0 130 68 0
67 0 -3 -130 -3 -130 85 0 86 0 0 280 c0 303 -2 315 -55 378 -56 67 -176 99
-256 69z m119 -174 c15 -13 22 -32 24 -68 l2 -50 -67 -3 -67 -3 0 51 c0 37 5
55 20 70 25 25 61 26 88 3z"/>
<path d="M2057 3163 c-4 -3 -7 -190 -7 -413 l0 -407 -29 -6 c-16 -4 -46 -21
-67 -39 -109 -96 -94 -244 32 -333 81 -57 94 -71 94 -104 0 -45 -22 -56 -112
-53 l-78 2 0 -84 c0 -67 3 -85 16 -90 9 -3 55 -6 102 -6 100 0 148 17 201 71
46 45 61 86 61 161 0 89 -26 129 -123 196 -46 32 -77 60 -77 71 0 35 23 50 80
53 l55 3 3 76 3 77 -38 7 -38 7 43 37 42 37 0 142 0 142 70 0 70 0 0 -130 0
-130 85 0 85 0 -2 358 -3 357 -82 3 -82 3 -3 -143 -3 -143 -67 -3 -68 -3 0
146 0 145 -78 0 c-43 0 -82 -3 -85 -7z"/>
<path d="M3165 3158 c-2 -7 -9 -58 -15 -113 -21 -191 -60 -567 -60 -581 0 -11
19 -14 83 -14 l84 0 19 177 19 177 58 -112 c32 -62 64 -112 70 -112 7 0 37 50
67 111 30 61 56 105 58 97 1 -7 10 -85 20 -173 l18 -160 82 -3 82 -3 0 28 c0
31 -44 444 -63 593 l-12 95 -57 3 -57 3 -66 -131 c-37 -71 -70 -130 -74 -130
-3 0 -36 59 -71 130 l-64 130 -59 0 c-37 0 -59 -4 -62 -12z"/>
<path d="M3846 3128 c-3 -24 -10 -90 -16 -148 -12 -122 -48 -450 -54 -497 l-5
-33 84 0 c99 0 87 -23 109 194 9 82 18 151 19 152 2 2 27 -46 57 -107 35 -70
60 -109 68 -107 8 2 37 49 66 105 28 57 54 103 57 103 3 0 11 -55 18 -122 7
-68 14 -144 18 -170 l6 -48 84 0 84 0 -7 73 c-4 39 -21 200 -38 357 l-32 285
-59 3 -60 3 -65 -131 c-35 -71 -68 -130 -72 -130 -4 0 -36 57 -71 128 l-64
127 -61 3 -60 3 -6 -43z"/>
<path d="M4490 3034 c0 -127 -1 -136 -20 -141 -11 -3 -20 -7 -20 -9 0 -2 9
-37 20 -76 16 -57 20 -103 20 -215 l0 -143 195 0 196 0 -3 83 -3 82 -107 3
-108 3 0 54 0 55 113 0 113 0 -20 81 -21 82 -92 -2 -93 -2 0 55 0 56 110 0
111 0 -3 83 -3 82 -192 3 -193 2 0 -136z"/>
<path d="M4928 3164 c-5 -4 -8 -166 -8 -361 l0 -353 85 0 84 0 3 78 3 77 53
-77 53 -78 100 0 101 0 -18 28 c-9 15 -37 56 -60 91 l-43 64 45 44 c61 59 88
121 88 203 -1 118 -63 214 -173 263 -37 17 -72 22 -176 25 -71 2 -133 1 -137
-4z m262 -193 c14 -10 29 -35 35 -56 13 -51 -16 -104 -67 -123 -62 -24 -68
-16 -68 96 0 54 3 102 7 106 12 11 65 -2 93 -23z"/>
<path d="M4345 2343 c-100 -30 -190 -108 -234 -203 -16 -35 -16 -34 -19 88
l-3 123 -81 -3 -81 -3 2 -94 2 -94 -78 70 c-43 39 -89 83 -102 97 -22 24 -31
26 -103 26 l-78 0 0 -360 0 -360 85 0 85 0 0 237 0 238 95 -95 96 -95 -2 -140
-1 -140 81 -3 80 -3 3 118 3 118 23 -46 c32 -66 103 -133 180 -171 61 -30 74
-33 162 -33 58 0 108 5 128 14 l32 13 0 224 0 224 -85 0 -85 0 0 -141 0 -141
-27 6 c-47 11 -105 59 -131 106 -50 94 -11 215 87 267 51 27 142 31 203 9 21
-7 40 -11 43 -8 3 3 5 36 5 73 l0 68 -52 16 c-65 19 -168 18 -233 -2z"/>
<path d="M2237 2344 c-4 -4 -7 -42 -7 -85 l0 -78 53 -3 52 -3 3 -273 2 -273
83 3 82 3 3 273 2 272 51 0 50 0 -3 83 -3 82 -181 3 c-99 1 -183 -1 -187 -4z"/>
<path d="M2650 1991 l0 -361 85 0 84 0 3 77 3 77 50 -77 50 -77 98 0 c53 0 97
2 97 5 0 3 -23 39 -50 80 -28 42 -53 81 -56 88 -2 7 18 36 45 65 28 28 53 63
57 77 3 14 10 25 14 25 14 0 20 -61 20 -201 l0 -139 193 2 192 3 3 83 3 82
-111 0 -110 0 0 55 0 55 110 0 c127 0 122 -5 92 105 l-17 60 -93 3 -92 3 0 49
0 50 110 0 111 0 -3 83 -3 82 -192 3 -193 2 -1 -137 c-1 -132 -1 -136 -14 -91
-17 64 -59 132 -98 162 -64 49 -104 59 -249 64 l-138 5 0 -362z m245 174 c50
-24 72 -79 51 -129 -18 -42 -51 -66 -93 -66 l-33 0 0 105 c0 100 1 105 21 105
12 0 36 -7 54 -15z"/>
<path d="M4660 2265 l0 -85 50 0 50 0 0 -275 0 -275 85 0 85 0 0 275 0 275 50
0 50 0 0 85 0 85 -185 0 -185 0 0 -85z"/>
<path d="M5077 2343 c-4 -3 -7 -69 -7 -145 0 -129 -1 -138 -19 -138 -19 0 -19
-1 0 -72 14 -55 19 -109 19 -215 l0 -143 85 0 84 0 3 133 3 132 65 0 65 0 3
-132 3 -133 84 0 85 0 -2 358 -3 357 -82 3 -82 3 -3 -143 -3 -143 -65 0 -65 0
-3 143 -3 142 -78 0 c-43 0 -81 -3 -84 -7z"/>
<path d="M5597 2332 c-26 -29 -22 -77 9 -101 35 -27 59 -26 89 4 29 28 32 61
9 93 -20 28 -83 31 -107 4z m91 -4 c17 -17 15 -73 -2 -87 -24 -20 -69 -9 -85
20 -13 24 -13 29 2 53 19 28 63 36 85 14z"/>
<path d="M5627 2323 c-4 -3 -7 -25 -6 -47 0 -36 1 -38 10 -17 l9 23 18 -22 18
-22 1 38 c1 37 -9 54 -33 54 -6 0 -14 -3 -17 -7z m38 -23 c-3 -5 -13 -10 -21
-10 -8 0 -14 5 -14 10 0 6 9 10 21 10 11 0 17 -4 14 -10z"/>
</g>
</svg>
