<?xml version="1.0" standalone="no"?>
<!DOCTYPE svg PUBLIC "-//W3C//DTD SVG 20010904//EN"
 "http://www.w3.org/TR/2001/REC-SVG-20010904/DTD/svg10.dtd">
<svg version="1.0" xmlns="http://www.w3.org/2000/svg"
 width="1600.000000pt" height="1600.000000pt" viewBox="0 0 1600.000000 1600.000000"
 preserveAspectRatio="xMidYMid meet">

<g transform="translate(0.000000,1600.000000) scale(0.100000,-0.100000)"
fill="#000000" stroke="none">
<path d="M8455 8635 c-224 -49 -397 -200 -470 -413 -21 -60 -28 -103 -32 -192
-6 -144 11 -234 68 -349 188 -381 742 -465 1050 -160 195 194 245 516 119 778
-80 166 -249 297 -435 336 -85 18 -219 18 -300 0z m302 -290 c133 -60 213
-192 213 -350 0 -159 -76 -285 -210 -349 -57 -27 -76 -31 -150 -31 -225 0
-370 149 -370 381 0 233 163 393 387 380 50 -3 91 -13 130 -31z"/>
<path d="M967 8624 c-4 -4 -7 -290 -7 -636 l0 -629 133 3 132 3 5 374 c4 271
8 370 16 360 6 -8 78 -137 160 -288 l148 -274 20 26 c10 14 47 79 82 144 l63
118 -219 400 -218 400 -154 3 c-85 1 -157 -1 -161 -4z"/>
<path d="M2334 8622 c-13 -8 -684 -1236 -684 -1252 0 -7 49 -10 157 -8 l157 3
338 620 c186 341 338 626 338 633 0 9 -36 12 -147 12 -82 0 -153 -4 -159 -8z"/>
<path d="M3217 8623 c-3 -5 91 -179 209 -388 l213 -380 0 -248 1 -248 138 3
137 3 5 250 5 250 208 373 c114 205 207 377 207 383 0 6 -55 8 -146 7 l-147
-3 -126 -239 c-69 -132 -131 -241 -137 -243 -6 -2 -59 90 -119 204 -60 115
-119 225 -132 246 l-23 37 -145 0 c-79 0 -146 -3 -148 -7z"/>
<path d="M4917 8623 c-4 -3 -7 -289 -7 -635 l0 -628 135 0 135 0 0 188 c0 103
3 197 6 210 6 21 10 22 148 22 275 1 393 54 473 218 l38 76 0 131 0 131 -38
76 c-57 116 -136 176 -266 204 -69 14 -611 21 -624 7z m543 -255 c94 -41 129
-159 77 -259 -37 -71 -84 -89 -228 -89 -97 0 -118 3 -123 16 -3 9 -6 85 -6
169 0 196 -5 190 140 183 60 -3 120 -12 140 -20z"/>
<path d="M6475 8618 c-3 -7 -4 -292 -3 -633 l3 -620 135 0 135 0 5 220 5 220
96 3 c72 2 99 -1 107 -11 7 -8 51 -108 100 -223 l87 -209 153 -3 c83 -1 152 1
152 6 0 4 -45 109 -100 232 -55 123 -100 232 -100 241 0 10 15 26 33 38 119
73 179 231 156 410 -23 186 -130 290 -336 326 -113 20 -621 22 -628 3z m591
-254 c58 -29 84 -74 84 -149 0 -73 -24 -117 -80 -146 -29 -16 -58 -19 -177
-19 l-143 0 0 164 c0 122 3 166 13 170 6 3 69 4 138 3 99 -3 134 -8 165 -23z"/>
<path d="M9705 8608 c-3 -13 -5 -70 -3 -128 l3 -105 170 -6 c94 -3 171 -6 172
-7 2 -1 4 -226 5 -499 l3 -498 135 0 135 0 3 494 c2 381 5 497 15 503 6 4 83
8 170 8 l158 0 -3 128 -3 127 -477 3 -478 2 -5 -22z"/>
<path d="M11315 8618 c-3 -7 -4 -292 -3 -633 l3 -620 400 0 400 0 3 123 c1 67
1 123 0 124 -2 1 -120 5 -263 8 l-260 5 0 125 0 125 230 5 230 5 0 115 0 115
-230 5 -230 5 0 120 0 120 260 5 260 5 0 125 0 125 -398 3 c-313 2 -399 0
-402 -10z"/>
<path d="M12905 8618 c-3 -7 -4 -292 -3 -633 l3 -620 135 0 135 0 0 630 0 630
-133 3 c-100 2 -134 -1 -137 -10z"/>
<path d="M14017 8623 c-4 -3 -7 -289 -7 -635 l0 -628 135 0 135 0 0 386 c0
295 3 385 12 382 7 -3 116 -169 243 -371 128 -201 238 -373 245 -382 10 -12
40 -15 161 -15 l149 0 -2 633 -3 632 -130 0 -130 0 -3 -388 c-1 -238 -6 -387
-12 -385 -5 2 -111 165 -236 363 -124 198 -235 372 -246 388 l-19 27 -143 0
c-78 0 -146 -3 -149 -7z"/>
<path d="M2510 8042 l-125 -227 0 -225 0 -225 130 0 130 0 3 444 c1 245 -1
448 -6 453 -4 4 -64 -95 -132 -220z"/>
</g>
</svg>
