<?xml version="1.0" standalone="no"?>
<!DOCTYPE svg PUBLIC "-//W3C//DTD SVG 20010904//EN"
 "http://www.w3.org/TR/2001/REC-SVG-20010904/DTD/svg10.dtd">
<svg version="1.0" xmlns="http://www.w3.org/2000/svg"
 width="842.000000pt" height="596.000000pt" viewBox="0 0 842.000000 596.000000"
 preserveAspectRatio="xMidYMid meet">

<g transform="translate(0.000000,596.000000) scale(0.100000,-0.100000)"
fill="#000000" stroke="none">
<path d="M4211 4388 c-282 -40 -536 -315 -676 -730 -24 -71 -51 -139 -61 -149
-15 -17 -32 -19 -165 -19 -165 0 -163 0 -200 -74 -36 -70 -45 -76 -115 -76
-59 0 -65 2 -111 42 -26 23 -73 53 -103 67 -48 23 -68 26 -155 26 -94 0 -104
-2 -165 -34 -123 -64 -225 -202 -267 -361 -22 -80 -24 -280 -4 -360 22 -92 86
-214 146 -278 127 -137 307 -174 464 -95 61 31 156 121 185 176 21 38 50 51
91 41 18 -4 28 -18 41 -57 9 -29 21 -58 27 -64 7 -10 54 -13 171 -13 109 0
169 -4 186 -13 18 -9 37 -42 71 -124 123 -295 276 -480 480 -578 96 -46 163
-58 284 -53 159 8 281 67 420 203 116 115 215 273 281 450 41 108 43 110 181
110 l116 0 9 -30 c4 -16 15 -36 25 -42 13 -10 125 -13 479 -13 452 0 462 0
488 21 40 31 34 64 -28 149 -49 70 -64 105 -201 495 -82 231 -155 428 -164
439 -21 24 -65 46 -91 46 -36 0 -73 -28 -119 -91 l-43 -60 -106 3 -106 3 -33
45 c-80 110 -61 100 -184 100 -61 0 -119 4 -129 10 -12 6 -32 54 -59 138 -140
432 -396 708 -698 752 -77 11 -75 11 -162 -2z m159 -108 c245 -38 470 -285
589 -647 21 -65 42 -130 45 -145 l6 -28 -215 0 c-198 0 -215 1 -216 18 0 10
-3 12 -6 5 -3 -10 -62 -13 -243 -13 l-238 0 -31 35 c-17 19 -32 35 -34 35 -3
0 -7 -18 -11 -40 l-6 -40 -211 0 -212 0 7 39 c22 139 130 379 232 514 127 168
290 267 459 276 11 0 49 -4 85 -9z m-1060 -900 c0 -52 -3 -62 -24 -75 -31 -20
-76 -11 -76 16 0 14 7 19 25 19 23 0 25 3 25 50 0 47 2 50 25 50 24 0 25 -3
25 -60z m200 40 c45 -45 11 -120 -55 -120 -43 0 -75 29 -75 70 0 61 86 94 130
50z m215 0 c0 -10 -14 -17 -40 -21 l-40 -6 38 -2 c30 -1 37 -5 37 -21 0 -16
-7 -20 -32 -21 l-33 -2 35 -6 c22 -4 36 -12 38 -23 3 -16 -5 -18 -57 -18 l-61
0 0 70 0 71 58 -3 c43 -2 57 -7 57 -18z m236 -7 l11 -28 14 28 c21 38 50 36
60 -5 l7 -33 14 33 c8 21 20 32 33 32 24 0 25 -18 1 -85 -13 -37 -23 -51 -40
-53 -17 -3 -24 4 -33 30 l-12 33 -13 -33 c-10 -25 -19 -33 -35 -30 -16 2 -26
18 -44 71 l-23 67 25 0 c18 0 27 -8 35 -27z m354 7 c0 -10 -12 -16 -35 -19
l-35 -4 30 -6 c17 -4 31 -13 33 -24 3 -13 -4 -17 -30 -18 l-33 -2 35 -6 c22
-4 35 -12 35 -21 0 -11 -14 -16 -57 -18 l-58 -3 0 71 0 71 58 -3 c43 -2 57 -7
57 -18z m115 -50 c0 -63 -2 -70 -20 -70 -18 0 -20 7 -20 70 0 63 2 70 20 70
18 0 20 -7 20 -70z m194 49 c32 -25 35 -70 6 -99 -15 -15 -33 -20 -70 -20
l-50 0 0 70 0 70 44 0 c29 0 52 -7 70 -21z m216 1 c0 -16 -7 -20 -37 -21 l-38
-2 35 -6 c22 -4 35 -12 35 -21 0 -9 -13 -17 -35 -21 l-35 -6 38 -2 c30 -1 37
-5 37 -21 0 -18 -7 -20 -60 -20 l-60 0 0 70 0 70 60 0 c53 0 60 -2 60 -20z
m190 0 c24 -24 24 -30 6 -56 -13 -16 -13 -22 0 -41 14 -22 13 -23 -15 -23 -18
0 -34 8 -44 23 l-16 22 0 -22 c-1 -18 -7 -23 -26 -23 -24 0 -25 2 -25 63 0 35
3 67 7 70 15 16 93 7 113 -13z m136 7 c9 -25 -14 -67 -37 -67 -17 0 -19 3 -10
13 8 10 7 17 -1 25 -6 6 -8 18 -5 26 8 19 46 21 53 3z m180 -2 c4 -8 1 -21 -5
-29 -9 -10 -8 -15 4 -20 25 -9 18 -53 -11 -72 -34 -23 -99 -9 -99 21 0 16 6
20 30 17 l30 -2 -32 15 c-35 15 -45 49 -21 73 18 18 97 15 104 -3z m542 -32
c13 -12 67 -160 161 -443 117 -351 149 -435 181 -482 22 -32 40 -60 40 -63 0
-3 -99 -5 -220 -5 -121 0 -220 3 -220 8 0 4 12 30 26 57 30 59 29 82 -12 254
-17 75 -29 109 -35 100 -18 -34 -79 -253 -79 -287 0 -21 11 -56 25 -81 14 -24
24 -46 22 -48 -2 -2 -88 -2 -190 -1 l-187 3 36 45 c63 78 103 175 236 560 72
209 136 381 145 388 23 17 47 15 71 -5z m-3114 -33 c56 -29 135 -111 165 -172
38 -80 55 -166 54 -283 -1 -175 -42 -299 -134 -400 -70 -76 -137 -107 -233
-107 -158 0 -272 96 -337 282 -19 55 -23 87 -23 205 -1 118 2 151 21 210 43
138 137 245 243 280 69 22 183 15 244 -15z m550 -132 c-5 -7 -18 -28 -31 -47
-22 -32 -23 -43 -23 -197 l0 -164 38 0 c58 0 100 16 148 56 25 20 47 34 50 31
4 -4 -13 -71 -62 -239 -5 -17 -25 -18 -237 -18 l-231 0 31 33 c43 44 53 94 52
277 0 158 -9 212 -43 249 -9 10 -16 21 -16 24 0 4 75 7 166 7 129 0 164 -3
158 -12z m357 -35 c39 -96 35 -92 49 -58 9 24 8 36 -4 63 -9 18 -16 35 -16 37
0 3 110 5 244 5 183 0 246 -3 253 -12 6 -7 25 -55 44 -105 18 -51 37 -89 41
-85 4 4 22 50 41 102 l34 95 154 2 c129 2 151 1 137 -10 -15 -12 -18 -42 -22
-248 -4 -220 -3 -236 16 -266 11 -18 23 -33 28 -33 5 0 19 15 32 33 22 30 23
42 26 222 l3 191 -30 57 -31 58 198 -3 c221 -3 250 -11 299 -75 71 -93 16
-268 -91 -288 l-34 -7 -13 -101 c-7 -56 -13 -106 -13 -112 -1 -5 -9 -10 -18
-9 -10 0 -163 1 -340 2 l-322 2 32 33 c29 29 32 39 32 92 0 32 -3 56 -6 53 -3
-4 -20 -46 -39 -95 l-33 -88 -46 -3 c-42 -3 -47 0 -64 28 -11 16 -27 57 -37
90 -12 40 -21 56 -27 48 -17 -27 -8 -75 23 -116 l31 -42 -162 0 -162 0 34 42
33 42 0 228 c0 125 -1 228 -2 228 -2 0 -39 -73 -84 -162 -81 -162 -81 -162
-77 -230 3 -63 6 -70 43 -108 l39 -40 -182 0 c-100 0 -182 4 -182 8 0 5 9 17
21 28 34 31 49 70 49 128 0 47 -10 76 -65 193 -55 117 -73 145 -117 185 l-53
48 158 0 158 0 20 -47z m1822 0 l-38 -46 -3 -196 c-3 -192 -3 -197 22 -246 14
-27 24 -50 22 -52 -2 -2 -74 -2 -160 -1 l-156 3 27 39 c28 38 28 39 31 229 2
105 1 201 -3 214 -3 13 -22 41 -41 63 l-36 40 187 0 186 0 -38 -47z m-2213
-608 c0 -9 -10 -15 -27 -16 l-28 -1 25 -7 c30 -8 33 -34 5 -39 -11 -3 -24 -10
-28 -18 -4 -8 -15 -14 -22 -14 -11 0 -15 14 -15 55 l0 55 45 0 c33 0 45 -4 45
-15z m50 -40 c0 -48 -2 -55 -20 -55 -18 0 -20 7 -20 55 0 48 2 55 20 55 18 0
20 -7 20 -55z m173 37 c15 -14 17 -14 17 1 0 10 8 17 20 17 18 0 20 -7 20 -55
0 -47 -3 -55 -19 -55 -10 0 -26 10 -34 23 l-16 22 0 -22 c-1 -16 -7 -23 -21
-23 -17 0 -20 7 -20 45 0 43 -1 45 -20 35 -14 -8 -20 -21 -20 -46 0 -28 -4
-35 -17 -32 -13 2 -19 14 -21 41 -2 24 -8 37 -18 37 -8 0 -14 7 -14 15 0 22
137 19 163 -3z m165 1 c2 -8 -7 -14 -25 -14 -23 -1 -24 -2 -5 -6 31 -6 28 -31
-5 -36 -25 -4 -25 -4 5 -6 48 -2 35 -25 -16 -29 l-42 -3 0 56 0 56 42 -3 c23
-2 43 -9 46 -15z m95 11 c12 -13 -5 -32 -26 -28 -14 3 -12 0 6 -7 22 -9 28
-16 25 -38 -2 -22 -9 -27 -37 -29 -40 -4 -60 11 -42 32 8 10 9 16 1 21 -14 9
-13 42 3 48 17 8 63 8 70 1z m103 -19 c0 -11 4 -28 8 -38 17 -36 -43 -63 -83
-38 -22 14 -3 32 27 26 24 -5 23 -4 -5 9 -52 24 -36 70 22 64 22 -2 30 -8 31
-23z m139 -6 c-1 -19 4 -25 13 -21 10 3 13 -3 10 -24 -3 -24 -8 -29 -39 -32
-45 -4 -67 18 -51 51 5 12 13 30 16 40 4 12 14 17 28 15 17 -2 23 -10 23 -29z
m159 25 c10 -4 16 -18 16 -35 0 -22 -6 -30 -25 -35 -13 -3 -29 -12 -36 -20
-21 -26 -29 -15 -29 41 0 54 0 55 29 55 16 0 36 -3 45 -6z m126 -9 c0 -9 -10
-16 -27 -16 l-28 -2 28 -4 c15 -2 27 -11 27 -19 0 -8 -11 -15 -27 -15 l-28 -2
28 -4 c47 -7 33 -33 -18 -33 l-45 0 0 55 0 55 45 0 c33 0 45 -4 45 -15z m97 7
c15 -9 12 -102 -3 -102 -6 0 -17 7 -24 15 -11 14 -14 13 -25 -1 -6 -10 -17
-14 -23 -10 -13 8 -17 88 -5 99 9 9 65 9 80 -1z m121 -9 c2 -8 -7 -13 -25 -14
-27 0 -27 0 -5 -10 28 -11 24 -33 -6 -37 -12 -2 -22 -10 -22 -18 0 -9 -7 -14
-17 -12 -19 3 -30 64 -19 95 7 18 87 14 94 -4z m106 1 c48 -47 -14 -116 -75
-84 -25 14 -26 75 -1 89 25 15 58 13 76 -5z m120 0 c18 -18 19 -24 7 -43 -6
-9 -6 -22 0 -33 13 -24 -17 -25 -43 -1 -17 15 -18 15 -18 -1 0 -10 -6 -16 -12
-14 -8 3 -14 26 -16 56 l-3 52 35 0 c19 0 42 -7 50 -16z m72 -1 c12 -17 14
-17 27 1 9 12 20 17 31 13 13 -5 16 -17 14 -54 -3 -49 -25 -71 -35 -34 -4 17
-8 19 -19 10 -10 -8 -14 -8 -14 0 0 6 -4 11 -10 11 -5 0 -10 -9 -10 -20 0 -11
-7 -20 -15 -20 -12 0 -15 13 -15 55 0 44 3 55 16 55 9 0 23 -8 30 -17z m181
-33 c12 -25 22 -48 23 -52 0 -12 -34 -10 -46 2 -8 8 -19 7 -38 -1 -14 -7 -29
-10 -32 -7 -3 4 5 29 17 57 27 63 45 64 76 1z m87 28 l16 -22 0 22 c0 15 6 22
20 22 17 0 20 -7 20 -50 0 -60 -22 -77 -52 -41 -18 23 -18 23 -18 2 0 -14 -6
-21 -20 -21 -18 0 -20 7 -20 55 0 48 3 55 19 55 11 0 27 -10 35 -22z m155 13
c19 -12 4 -31 -25 -31 -15 0 -24 -6 -24 -15 0 -10 10 -15 30 -15 38 0 41 -27
4 -36 -42 -11 -74 10 -74 49 0 18 5 38 12 45 14 14 57 16 77 3z m121 -6 c0 -9
-10 -16 -27 -16 l-28 -2 28 -4 c33 -5 31 -25 -4 -34 -24 -7 -24 -7 4 -8 17 -1
27 -6 27 -17 0 -12 -10 -14 -47 -12 l-47 3 1 48 c1 26 2 49 2 52 1 3 21 5 46
5 33 0 45 -4 45 -15z m-1496 -172 l20 -63 93 0 c61 0 93 -4 93 -11 0 -25 79
-177 110 -212 78 -89 151 -89 232 1 36 40 90 142 103 195 7 26 10 27 79 29 40
1 55 3 34 5 l-38 4 0 50 0 49 39 0 c23 0 46 -7 55 -16 13 -12 16 -12 16 -2 0
8 -5 19 -12 26 -9 9 22 12 141 12 l153 0 -7 -27 c-3 -16 -24 -72 -45 -126
-125 -313 -332 -519 -561 -557 -290 -49 -580 195 -728 613 -17 49 -31 91 -31
93 0 3 53 3 117 2 l117 -3 20 -62z m37 35 c10 -19 12 -19 21 -5 12 22 37 22
45 1 5 -15 7 -15 15 0 5 9 16 16 25 16 11 0 14 -6 9 -25 -19 -76 -43 -96 -64
-52 l-11 22 -7 -22 c-12 -40 -39 -27 -56 26 -9 28 -13 52 -10 55 10 11 21 6
33 -16z m229 2 c0 -5 -11 -10 -25 -10 -14 0 -25 -4 -25 -10 0 -5 9 -10 20 -10
28 0 25 -20 -2 -21 -22 -1 -22 -1 1 -8 45 -12 37 -31 -13 -31 l-46 0 0 50 0
50 45 0 c25 0 45 -4 45 -10z m100 0 c0 -5 -9 -10 -20 -10 -11 0 -20 -4 -20
-10 0 -5 9 -10 20 -10 31 0 24 -20 -7 -21 l-28 -2 28 -4 c15 -3 27 -11 27 -19
0 -12 -10 -14 -42 -12 l-43 3 -3 48 -3 47 45 0 c26 0 46 -4 46 -10z m53 -2 c4
-10 7 -10 18 0 7 6 21 12 31 12 17 0 17 -2 3 -23 -13 -21 -13 -26 0 -43 8 -10
15 -22 15 -26 0 -12 -38 -9 -46 3 -4 8 -9 8 -17 0 -25 -25 -37 -11 -37 39 0
36 4 50 14 50 8 0 16 -6 19 -12z m167 2 c0 -5 -9 -10 -20 -10 -11 0 -20 -4
-20 -10 0 -5 9 -10 20 -10 31 0 24 -20 -7 -21 l-28 -2 28 -4 c15 -3 27 -11 27
-19 0 -12 -10 -14 -42 -12 l-43 3 -3 48 -3 47 45 0 c26 0 46 -4 46 -10z m72
-7 c17 -15 18 -15 18 0 0 10 7 17 15 17 11 0 15 -12 15 -50 0 -56 -11 -62 -47
-28 l-23 21 0 -21 c0 -13 -6 -22 -15 -22 -11 0 -15 12 -15 50 0 55 16 65 52
33z"/>
<path d="M4160 4237 c-95 -32 -156 -71 -236 -151 -81 -80 -149 -180 -204 -299
-40 -87 -85 -213 -96 -272 l-6 -35 182 2 182 3 28 110 c47 185 97 293 170 366
162 162 327 -14 424 -453 l6 -28 185 0 184 0 -20 69 c-101 367 -313 633 -554
697 -75 20 -170 17 -245 -9z"/>
<path d="M4235 3971 c-60 -36 -116 -122 -156 -239 l-19 -54 23 5 c12 4 46 11
75 18 51 11 53 13 47 38 -14 57 -16 146 -3 170 12 23 48 39 122 56 23 5 27 8
15 16 -23 14 -72 10 -104 -10z"/>
<path d="M4370 3956 c14 -18 14 -19 -6 -8 -18 9 -25 8 -39 -8 -9 -10 -15 -25
-12 -32 4 -8 6 -7 6 5 1 21 41 24 41 2 0 -9 -6 -12 -15 -9 -9 4 -15 0 -15 -9
0 -33 13 -47 41 -47 19 0 29 -5 29 -15 0 -8 -5 -15 -11 -15 -8 0 -8 -5 1 -15
11 -13 8 -17 -19 -26 -17 -6 -31 -15 -31 -20 0 -6 9 -5 21 1 11 6 25 9 32 6 9
-3 8 -5 -1 -5 -7 -1 -10 -5 -7 -11 3 -5 0 -10 -7 -11 -7 0 -4 -4 7 -9 19 -8
19 -9 -3 -9 -16 -1 -27 -11 -37 -33 -12 -28 -14 -29 -15 -10 0 26 -20 30 -21
5 0 -12 -5 -8 -15 12 l-14 30 6 -44 c5 -35 3 -42 -7 -35 -16 10 -94 26 -129
26 -14 0 -38 -5 -55 -12 l-30 -12 29 -25 c24 -20 31 -23 35 -11 4 11 12 13 26
8 19 -7 18 -8 -6 -18 -15 -6 -29 -18 -33 -28 -5 -13 -4 -15 8 -5 11 9 15 7 18
-7 7 -27 63 -52 101 -46 30 4 30 4 10 -7 -13 -7 -23 -16 -23 -21 0 -15 93 3
115 22 11 10 38 27 59 37 50 25 32 39 -32 24 -54 -11 -167 -11 -149 1 9 6 6
13 -11 26 -20 15 -21 20 -9 36 20 27 91 4 108 -35 6 -16 16 -29 21 -29 8 0 5
18 -9 57 -5 13 35 38 45 28 7 -7 9 -13 11 -42 1 -12 10 -19 31 -20 38 -3 46
11 24 45 l-17 27 23 -20 c16 -14 24 -16 27 -8 3 8 14 11 29 7 16 -4 24 -2 24
7 0 11 3 11 10 -1 18 -27 11 7 -15 76 -37 99 -82 177 -123 215 -20 19 -30 25
-22 15z m17 -68 c-3 -8 -6 -5 -6 6 -1 11 2 17 5 13 3 -3 4 -12 1 -19z m41
-188 c27 0 33 -3 22 -10 -8 -5 -25 -7 -36 -4 -12 3 -32 1 -43 -6 -23 -12 -24
-10 -15 15 4 9 13 14 21 11 8 -3 31 -6 51 -6z"/>
<path d="M4284 3869 c-19 -22 -19 -22 4 -10 12 6 22 16 22 21 0 15 -5 12 -26
-11z"/>
<path d="M4320 3834 c0 -3 6 -12 14 -20 20 -19 26 -18 26 6 0 13 -7 20 -20 20
-11 0 -20 -3 -20 -6z"/>
<path d="M4481 3620 c-24 -14 -4 -40 31 -41 19 -1 25 -3 13 -6 -11 -2 -31 -6
-45 -10 l-25 -6 25 -7 25 -8 -26 -1 c-14 -1 -34 -10 -44 -21 -18 -20 -17 -20
24 -20 51 0 114 27 107 46 -3 7 -8 28 -11 46 -5 27 -11 33 -33 35 -15 1 -34
-2 -41 -7z"/>
<path d="M3434 3386 c-9 -24 4 -48 23 -44 12 2 18 12 18 28 0 29 -32 41 -41
16z"/>
<path d="M4560 3369 c0 -24 4 -30 17 -27 22 4 30 38 11 49 -22 15 -28 10 -28
-22z"/>
<path d="M4962 3388 c5 -15 28 -18 29 -3 0 6 -7 12 -17 13 -10 3 -15 -1 -12
-10z"/>
<path d="M5298 3393 c7 -3 16 -2 19 1 4 3 -2 6 -13 5 -11 0 -14 -3 -6 -6z"/>
<path d="M5833 3368 c-5 -7 -65 -175 -133 -373 -124 -362 -156 -444 -205 -522
l-26 -43 127 0 126 0 -7 23 c-24 70 -18 115 41 308 32 107 61 184 65 177 11
-22 80 -320 86 -373 4 -34 0 -63 -11 -89 -9 -21 -16 -40 -16 -42 0 -2 75 -4
166 -4 91 0 164 3 162 8 -2 4 -16 32 -32 62 -16 30 -89 234 -162 453 -73 219
-138 405 -145 413 -14 17 -24 18 -36 2z"/>
<path d="M2538 3345 c-66 -21 -150 -101 -188 -178 -58 -118 -74 -264 -45 -413
27 -142 99 -250 201 -300 49 -24 63 -26 135 -22 73 4 85 8 137 44 115 79 172
205 180 399 6 175 -22 282 -102 380 -72 87 -207 125 -318 90z m172 -164 c52
-55 74 -136 74 -276 0 -204 -51 -325 -137 -325 -104 0 -165 144 -155 367 8
176 60 273 145 273 29 0 44 -8 73 -39z"/>
<path d="M2597 3170 c-81 -64 -101 -345 -34 -479 89 -179 198 -33 184 246 -6
125 -26 192 -69 228 -36 30 -48 31 -81 5z"/>
<path d="M3076 3188 c4 -13 9 -114 11 -224 3 -166 1 -209 -11 -239 -9 -21 -16
-39 -16 -41 0 -2 79 -4 175 -4 l174 0 17 58 c9 31 19 63 21 69 4 10 -4 9 -31
-2 -21 -9 -67 -15 -111 -15 l-75 0 0 170 c0 129 4 179 15 207 8 19 15 37 15
39 0 2 -43 4 -96 4 -96 0 -96 0 -88 -22z"/>
<path d="M3450 3201 c0 -6 5 -13 11 -17 7 -4 43 -73 82 -153 69 -143 70 -148
68 -219 -1 -43 -8 -86 -16 -103 l-16 -29 106 0 106 0 -16 30 c-9 18 -15 56
-15 100 0 68 3 76 79 229 44 87 77 161 74 165 -4 3 -37 6 -73 6 l-68 0 -4 -52
c-7 -65 -46 -157 -59 -137 -4 7 -20 47 -35 89 -15 41 -31 81 -37 88 -11 14
-187 17 -187 3z"/>
<path d="M3977 3166 c-10 -69 -9 -264 1 -270 8 -5 18 51 37 204 3 21 -2 51
-13 75 l-19 40 -6 -49z"/>
<path d="M4042 3179 c20 -57 -27 -404 -63 -466 l-18 -33 90 0 c89 0 90 0 78
22 -12 23 -7 177 9 232 l8 29 22 -51 c12 -28 22 -53 22 -56 0 -3 14 -43 31
-90 29 -80 33 -86 58 -86 27 0 30 7 87 158 l59 157 8 -70 c4 -38 7 -109 5
-158 l-3 -87 98 0 97 0 -15 23 c-17 27 -55 296 -55 394 0 34 4 73 10 88 l10
26 -93 -3 -92 -3 -50 -137 c-27 -76 -53 -138 -56 -138 -3 0 -25 53 -49 118
-61 167 -57 162 -140 162 l-69 0 11 -31z"/>
<path d="M4755 3179 c14 -25 16 -64 13 -244 -3 -193 -5 -215 -22 -234 l-19
-21 110 0 111 0 -19 37 c-17 33 -19 60 -19 220 l0 183 40 0 c56 0 80 -26 80
-87 0 -59 -30 -113 -62 -113 -16 0 -19 -3 -11 -11 7 -7 35 -10 72 -7 53 4 66
9 95 37 67 65 68 175 3 225 -49 37 -99 46 -250 46 l-138 0 16 -31z"/>
<path d="M4595 3147 c-7 -33 10 -215 20 -225 3 -3 5 54 5 126 0 77 -4 132 -10
132 -5 0 -12 -15 -15 -33z"/>
<path d="M4947 3083 c-11 -11 -8 -121 3 -128 31 -19 62 66 41 111 -10 23 -31
31 -44 17z"/>
<path d="M4942 2806 c4 -46 12 -74 29 -97 l23 -33 7 33 c4 18 10 62 14 97 l7
64 -43 0 -42 0 5 -64z"/>
<path d="M5250 3203 c1 -5 7 -19 15 -33 21 -38 21 -419 0 -460 l-16 -30 105 0
105 0 -15 35 c-10 26 -14 81 -14 228 0 169 2 197 19 230 l19 37 -109 0 c-60 0
-109 -3 -109 -7z"/>
<path d="M4140 2560 c0 -5 5 -10 11 -10 5 0 7 5 4 10 -3 6 -8 10 -11 10 -2 0
-4 -4 -4 -10z"/>
<path d="M4355 2560 c-3 -5 1 -10 10 -10 9 0 13 5 10 10 -3 6 -8 10 -10 10 -2
0 -7 -4 -10 -10z"/>
<path d="M4563 2554 c-9 -23 13 -40 32 -24 12 10 13 16 4 26 -15 18 -28 18
-36 -2z"/>
<path d="M4695 2560 c-3 -5 1 -10 9 -10 9 0 16 5 16 10 0 6 -4 10 -9 10 -6 0
-13 -4 -16 -10z"/>
<path d="M3650 2448 c1 -27 78 -206 118 -275 95 -163 202 -269 332 -332 73
-35 78 -36 195 -36 114 0 123 2 185 31 175 84 308 240 412 484 20 47 40 97 43
113 l7 27 -111 0 -111 0 0 -44 c0 -63 -31 -86 -114 -86 l-61 0 -28 -70 c-60
-147 -160 -241 -241 -226 -71 13 -138 88 -197 221 l-34 75 -90 0 -90 0 -19 65
-18 65 -89 0 c-65 0 -89 -3 -89 -12z"/>
<path d="M4630 2410 c0 -13 5 -20 13 -17 6 2 12 10 12 17 0 7 -6 15 -12 18 -8
2 -13 -5 -13 -18z"/>
<path d="M4679 2373 c-13 -16 -12 -17 4 -4 16 13 21 21 13 21 -2 0 -10 -8 -17
-17z"/>
</g>
</svg>
