<svg version="1.1" id="Layer_1" xmlns="http://www.w3.org/2000/svg" xmlns:xlink="http://www.w3.org/1999/xlink" x="0px" y="0px"
	 width="100%" viewBox="0 0 539 89" enable-background="new 0 0 539 89" xml:space="preserve">
<path fill="#000000" opacity="1.000000" stroke="none" 
	d="
M540.000000,24.000004 
	C540.000000,41.354229 540.000000,58.708454 539.715332,76.860443 
	C537.245850,72.704483 533.748779,70.285805 528.060547,70.924232 
	C523.232056,71.466164 520.565430,73.744957 520.003296,78.874352 
	C519.520569,83.279205 521.970825,86.802299 526.163818,88.066353 
	C526.903015,88.289200 527.394287,89.334503 528.000000,89.999992 
	C516.312439,90.000000 504.624878,90.000000 492.139709,89.771858 
	C491.575500,89.067406 491.808929,88.591103 492.466736,88.063736 
	C497.918396,88.523201 502.055847,87.351418 504.360382,81.963120 
	C505.118439,80.819160 505.559052,79.826256 506.351929,78.903717 
	C507.079773,77.807037 507.455292,76.639984 507.537384,74.896828 
	C503.407990,75.137230 504.024963,78.183189 503.606689,81.049446 
	C500.518829,81.770699 497.781158,82.328659 494.930542,82.589676 
	C494.227936,81.492661 493.638306,80.692581 493.026886,79.431046 
	C493.005096,64.712929 493.005096,50.456264 493.005096,35.797913 
	C498.060638,35.797913 502.483643,35.797913 506.906616,35.797913 
	C503.113708,30.781410 497.401367,34.732475 492.885376,32.220245 
	C492.885376,26.315294 492.885376,20.349352 492.885376,14.135262 
	C492.033020,14.081584 491.383606,13.901982 490.798431,14.025825 
	C486.210693,14.996739 481.524475,15.681417 477.079895,17.111092 
	C468.705414,19.804880 470.125702,17.028284 470.003845,26.403666 
	C469.976288,28.523600 469.999786,30.644199 469.999786,32.050144 
	C467.494354,33.025597 465.693542,33.726727 463.892700,34.427856 
	C464.108948,34.911446 464.325195,35.395035 464.541443,35.878624 
	C466.283051,35.974419 468.024628,36.070217 469.999878,36.178864 
	C469.999878,48.057129 469.745300,59.541290 470.123413,71.004585 
	C470.277649,75.681229 470.052185,80.974983 475.100861,84.442200 
	C478.163696,85.791916 481.081940,86.812637 484.391022,87.907669 
	C485.840424,88.026276 486.899048,88.070557 488.114868,88.479736 
	C488.181366,89.229752 488.090698,89.614876 488.000000,90.000000 
	C466.645782,90.000000 445.291534,90.000000 423.134033,89.681488 
	C426.939301,87.378181 431.547791,85.393387 435.822968,83.552162 
	C435.520325,85.916504 436.988464,87.260635 440.483612,87.059273 
	C444.800140,86.810600 449.141846,86.999916 453.472687,86.999954 
	C456.955353,86.999977 460.437988,86.999962 463.920654,86.999962 
	C463.942566,86.478790 463.964447,85.957611 463.986359,85.436440 
	C462.052795,85.183456 460.119232,84.930473 457.790527,84.625786 
	C457.790527,67.317322 457.790527,50.252213 457.790527,33.298019 
	C448.262573,33.298019 439.183777,33.298019 430.105011,33.298019 
	C429.960663,33.775009 429.816345,34.251999 429.672028,34.728985 
	C431.385803,35.377552 433.099579,36.026115 434.999634,36.745171 
	C434.999634,48.834225 435.173615,60.985500 434.857452,73.124016 
	C434.791748,75.647346 433.176392,78.293121 431.743469,80.543976 
	C431.102875,81.550217 428.932556,82.416687 427.847961,82.081161 
	C426.666962,81.715813 425.635468,80.001648 425.107971,78.652931 
	C424.655304,77.495491 425.001038,76.024147 425.000946,74.691620 
	C424.999878,60.918526 425.000275,47.145435 425.000275,33.215721 
	C415.102661,33.215721 405.682037,33.215721 396.261414,33.215721 
	C396.096893,33.730835 395.932404,34.245945 395.767883,34.761059 
	C397.725952,35.372494 399.684021,35.983925 401.999817,36.707062 
	C401.999817,47.629120 401.620209,58.779053 402.112854,69.890312 
	C402.553619,79.830933 405.722076,87.868958 416.631836,88.103447 
	C417.101257,88.113541 417.544525,89.340118 418.000000,90.000000 
	C308.645782,90.000000 199.291550,90.000000 89.112747,89.705048 
	C95.357399,63.275360 102.426620,37.140614 109.369659,11.472345 
	C111.826187,10.962153 113.831429,10.545690 115.836662,10.129226 
	C115.777580,9.582354 115.718498,9.035480 115.659416,8.488608 
	C108.179497,8.488608 100.699532,8.484581 93.220818,8.579346 
	C93.173836,8.579941 93.144249,9.953703 93.086037,11.084522 
	C96.950890,11.084522 100.377304,11.084522 104.060219,11.084522 
	C99.856812,27.480261 95.762207,43.451614 91.381927,60.537235 
	C85.997597,43.472202 80.945816,27.461136 76.038689,11.908536 
	C78.415512,10.996410 80.217094,10.305037 82.018684,9.613662 
	C81.848976,9.150935 81.679268,8.688208 81.509560,8.225481 
	C69.731079,8.225481 57.952606,8.225481 46.174129,8.225481 
	C46.016216,8.651884 45.858299,9.078287 45.700386,9.504690 
	C46.782814,10.003001 47.852413,10.531984 48.951019,10.991631 
	C50.238277,11.530208 52.533024,11.788633 52.702591,12.546363 
	C54.717262,21.549154 61.038795,29.853464 57.030201,39.886585 
	C55.241184,44.364315 54.049557,49.087276 52.704258,53.732948 
	C52.038010,56.033699 51.637730,58.411465 50.831097,62.041550 
	C48.809700,56.766861 47.321541,52.883602 45.902657,48.615429 
	C41.731415,35.935280 37.490891,23.640047 33.268494,11.397365 
	C35.583355,10.972340 37.714935,10.580967 39.846516,10.189594 
	C39.814503,9.705549 39.782490,9.221503 39.750477,8.737458 
	C27.551729,8.737458 15.352983,8.737458 3.057624,8.737458 
	C3.057624,9.025292 2.997225,9.531942 3.080054,10.013984 
	C3.130532,10.307749 3.427840,10.815140 3.569914,10.800352 
	C10.215153,10.108649 9.696278,15.775041 11.095627,19.484781 
	C17.745260,37.113262 24.332605,54.766659 30.740036,72.484268 
	C32.810089,78.208298 34.264153,84.155106 36.000000,90.000000 
	C24.341541,90.000000 12.683084,90.000000 1.018469,90.000000 
	C1.012313,60.362419 1.012313,30.724831 1.012313,1.043622 
	C180.666656,1.043622 360.333344,1.043622 540.000000,1.038400 
	C540.000000,4.031076 540.000000,7.028974 539.718872,10.840715 
	C536.643250,6.558153 531.645447,5.834206 527.165710,7.324910 
	C524.344666,8.263649 521.875732,11.752568 520.395264,14.677737 
	C519.482056,16.482079 520.522949,19.421522 521.033875,21.775965 
	C523.587891,33.545094 526.256836,45.289288 528.926086,57.459015 
	C528.552551,60.818539 528.138367,63.761295 527.513977,68.197098 
	C529.919189,66.753914 531.832886,66.123985 531.823914,65.522705 
	C531.781494,62.677715 531.213806,59.840557 530.916138,56.590961 
	C531.275085,55.610481 531.676697,55.067108 531.808350,54.464714 
	C533.894043,44.923161 535.912048,35.366539 538.070007,25.841574 
	C538.233643,25.119053 539.334717,24.608885 540.000000,24.000004 
M508.969360,71.883087 
	C508.646057,71.644279 508.322723,71.405472 506.921417,71.109558 
	C506.822113,71.868637 506.722809,72.627716 506.623535,73.386803 
	C507.358948,73.047478 508.094360,72.708153 508.969360,71.883087 
M260.308014,50.169025 
	C258.189392,52.076511 256.070770,53.983997 253.082855,55.954956 
	C252.721909,54.500515 252.068817,53.050060 252.048904,51.590965 
	C251.944366,43.930603 252.000000,36.268055 252.000000,28.606268 
	C252.000000,20.171175 252.000000,11.736082 252.000000,3.471646 
	C242.005142,3.471646 232.559586,3.471646 223.114014,3.471646 
	C223.078079,3.874955 223.042160,4.278264 223.006226,4.681572 
	C225.265305,4.862587 227.524384,5.043603 229.728027,5.220177 
	C229.728027,32.006306 229.728027,58.417995 229.728027,84.798958 
	C227.642731,84.986206 225.832718,85.148727 224.022720,85.311249 
	C224.065125,85.695251 224.107529,86.079254 224.149933,86.463257 
	C235.388046,86.463257 246.626160,86.463257 257.864258,86.463257 
	C257.888245,86.121788 257.912231,85.780319 257.936249,85.438850 
	C256.113495,85.203445 254.290741,84.968033 252.575043,84.746452 
	C252.575043,76.489342 252.575043,68.273979 252.575043,58.834003 
	C257.161591,68.213860 261.138947,76.347832 265.186829,84.626060 
	C263.040619,85.005867 261.502594,85.278030 259.964569,85.550201 
	C260.040710,85.880890 260.116882,86.211578 260.193024,86.542267 
	C271.080780,86.542267 281.968536,86.542267 292.707642,86.542267 
	C291.017487,84.882645 289.054291,83.645256 288.065887,81.866287 
	C283.506500,73.660263 279.218628,65.303398 274.845276,56.366936 
	C274.266449,55.562054 273.687592,54.757175 273.008179,53.345825 
	C272.710388,52.883144 272.412598,52.420460 272.006592,51.260082 
	C271.685272,49.211479 271.363953,47.162876 271.693542,44.830444 
	C278.030975,42.505638 281.217743,33.784660 289.793335,35.875809 
	C290.030762,35.933708 290.941406,34.719326 290.847534,34.230888 
	C290.752808,33.737740 289.801117,33.068413 289.218170,33.061764 
	C282.175720,32.981483 275.131989,33.009758 268.088623,33.009758 
	C267.966400,33.703609 267.844177,34.397461 267.721985,35.091312 
	C270.362518,35.572308 273.003021,36.053307 275.349457,36.480728 
	C273.842651,38.678173 272.400177,40.781773 270.241943,42.994293 
	C267.129669,45.309402 264.017426,47.624508 260.979950,49.980270 
	C260.979950,49.980270 260.939331,49.905449 260.308014,50.169025 
M362.835663,87.981812 
	C376.442627,86.775085 386.665894,79.965347 390.647339,65.589027 
	C393.131775,56.618095 393.378265,46.653160 392.690125,37.276585 
	C391.905151,26.580227 386.737854,17.252827 377.015625,11.647011 
	C368.823395,6.923369 359.557892,6.206605 350.374634,7.094948 
	C337.601196,8.330589 327.564758,14.179639 321.972229,26.278261 
	C317.719299,35.478920 316.535919,44.963234 317.780426,55.155384 
	C319.011658,65.238602 321.485840,74.328880 329.575867,81.010468 
	C335.153717,85.617226 341.607330,87.844856 349.354034,87.870338 
	C348.878601,86.375755 348.808746,85.497536 348.371429,84.879219 
	C340.488068,73.733261 342.063202,60.947376 342.005188,48.448147 
	C341.976593,42.288086 341.511047,36.076118 342.154694,29.983940 
	C342.669495,25.111280 344.341278,20.310591 345.907593,15.614044 
	C347.346558,11.299319 351.046936,10.041609 355.259399,10.004334 
	C359.631042,9.965652 363.770142,11.023849 365.052124,15.641903 
	C366.768066,21.823271 368.788513,28.217684 368.782837,34.518913 
	C368.770111,48.666466 367.588379,62.812969 366.242279,77.275223 
	C363.230042,80.616714 360.217773,83.958214 357.160187,87.349998 
	C358.134674,87.447273 360.067627,87.640228 362.835663,87.981812 
M110.315796,70.823372 
	C113.282440,79.096481 118.163048,85.723892 127.390060,86.954659 
	C134.349091,87.882919 141.657257,88.658455 148.481125,87.523857 
	C157.415939,86.038292 164.164505,80.373505 165.913727,70.911621 
	C166.949036,65.311424 166.936234,59.470699 166.942825,53.737617 
	C166.953781,44.195107 160.107452,36.243958 151.863449,33.833096 
	C143.912292,31.507874 136.042068,31.245522 128.257294,33.414730 
	C117.699318,36.356674 110.665619,42.913246 110.034935,54.546947 
	C109.756126,59.689938 110.017189,64.862198 110.315796,70.823372 
M176.000000,57.500130 
	C176.000000,66.612000 176.000000,75.723869 176.000000,84.786964 
	C173.284775,84.989456 171.149994,85.148651 169.015228,85.307854 
	C169.057053,85.686386 169.098877,86.064911 169.140701,86.443436 
	C181.383575,86.443436 193.626434,86.443436 205.869293,86.443436 
	C205.888428,86.031654 205.907578,85.619873 205.926727,85.208092 
	C203.433914,85.094994 200.941101,84.981895 198.007843,84.848816 
	C198.007843,73.368668 197.450958,62.040176 198.261841,50.810448 
	C198.623322,45.804562 200.484070,40.170494 206.010880,37.617825 
	C206.938568,37.189339 208.492142,38.115910 209.756516,38.416374 
	C209.356979,39.533588 209.291992,41.198288 208.503983,41.679806 
	C203.098633,44.982830 202.579620,50.960678 207.825912,54.198544 
	C211.628082,56.545143 216.097824,56.490879 219.836227,54.447838 
	C223.845688,52.256657 225.289093,47.909359 224.899139,43.499733 
	C224.525894,39.279076 223.394501,35.038750 218.706955,33.292049 
	C210.710175,30.312227 203.914764,32.291470 198.131668,39.151283 
	C198.024017,36.746059 197.946060,35.004272 197.866974,33.237152 
	C188.086075,33.237152 178.643219,33.237152 169.200363,33.237152 
	C169.047363,33.771492 168.894379,34.305828 168.741379,34.840168 
	C171.067169,35.420673 173.392944,36.001179 176.000000,36.651894 
	C176.000000,43.214283 176.000000,49.857246 176.000000,57.500130 
z"/>
<path fill="#FFEB00" opacity="1.000000" stroke="none" 
	d="
M418.416656,90.000000 
	C417.544525,89.340118 417.101257,88.113541 416.631836,88.103447 
	C405.722076,87.868958 402.553619,79.830933 402.112854,69.890312 
	C401.620209,58.779053 401.999817,47.629120 401.999817,36.707062 
	C399.684021,35.983925 397.725952,35.372494 395.767883,34.761059 
	C395.932404,34.245945 396.096893,33.730835 396.261414,33.215721 
	C405.682037,33.215721 415.102661,33.215721 425.000275,33.215721 
	C425.000275,47.145435 424.999878,60.918526 425.000946,74.691620 
	C425.001038,76.024147 424.655304,77.495491 425.107971,78.652931 
	C425.635468,80.001648 426.666962,81.715813 427.847961,82.081161 
	C428.932556,82.416687 431.102875,81.550217 431.743469,80.543976 
	C433.176392,78.293121 434.791748,75.647346 434.857452,73.124016 
	C435.173615,60.985500 434.999634,48.834225 434.999634,36.745171 
	C433.099579,36.026115 431.385803,35.377552 429.672028,34.728985 
	C429.816345,34.251999 429.960663,33.775009 430.105011,33.298019 
	C439.183777,33.298019 448.262573,33.298019 457.790527,33.298019 
	C457.790527,50.252213 457.790527,67.317322 457.790527,84.625786 
	C460.119232,84.930473 462.052795,85.183456 463.986359,85.436440 
	C463.964447,85.957611 463.942566,86.478790 463.920654,86.999962 
	C460.437988,86.999962 456.955353,86.999977 453.472687,86.999954 
	C449.141846,86.999916 444.800140,86.810600 440.483612,87.059273 
	C436.988464,87.260635 435.520325,85.916504 435.822968,83.552162 
	C431.547791,85.393387 426.939301,87.378181 422.665405,89.681488 
	C421.611115,90.000000 420.222198,90.000000 418.416656,90.000000 
z"/>
<path fill="#FFEB00" opacity="1.000000" stroke="none" 
	d="
M45.833374,49.000343 
	C47.321541,52.883602 48.809700,56.766861 50.831097,62.041550 
	C51.637730,58.411465 52.038010,56.033699 52.704258,53.732948 
	C54.049557,49.087276 55.241184,44.364315 57.030201,39.886585 
	C61.038795,29.853464 54.717262,21.549154 52.702591,12.546363 
	C52.533024,11.788633 50.238277,11.530208 48.951019,10.991631 
	C47.852413,10.531984 46.782814,10.003001 45.700386,9.504690 
	C45.858299,9.078287 46.016216,8.651884 46.174129,8.225481 
	C57.952606,8.225481 69.731079,8.225481 81.509560,8.225481 
	C81.679268,8.688208 81.848976,9.150935 82.018684,9.613662 
	C80.217094,10.305037 78.415512,10.996410 76.038689,11.908536 
	C80.945816,27.461136 85.997597,43.472202 91.381927,60.537235 
	C95.762207,43.451614 99.856812,27.480261 104.060219,11.084522 
	C100.377304,11.084522 96.950890,11.084522 93.086037,11.084522 
	C93.144249,9.953703 93.173836,8.579941 93.220818,8.579346 
	C100.699532,8.484581 108.179497,8.488608 115.659416,8.488608 
	C115.718498,9.035480 115.777580,9.582354 115.836662,10.129226 
	C113.831429,10.545690 111.826187,10.962153 109.369659,11.472345 
	C102.426620,37.140614 95.357399,63.275360 88.644089,89.705048 
	C85.307091,90.000000 81.614182,90.000000 77.813889,89.713547 
	C72.310974,73.151169 66.915443,56.875233 61.885612,41.702480 
	C59.557899,46.767689 56.847698,52.594681 54.226917,58.461617 
	C53.915691,59.158344 54.093048,60.073326 53.751640,61.142677 
	C47.189228,62.627155 41.384613,56.634747 43.257839,50.710693 
	C43.499763,49.945606 44.945354,49.561127 45.833374,49.000343 
z"/>
<path fill="#FFEB00" opacity="1.000000" stroke="none" 
	d="
M45.902657,48.615425 
	C44.945354,49.561127 43.499763,49.945606 43.257839,50.710693 
	C41.384613,56.634747 47.189228,62.627155 54.099731,61.331467 
	C54.566742,62.659492 54.532398,64.088669 54.197216,65.443405 
	C52.169647,73.638382 50.073330,81.816345 48.000000,90.000000 
	C44.307091,90.000000 40.614182,90.000000 36.460636,90.000000 
	C34.264153,84.155106 32.810089,78.208298 30.740036,72.484268 
	C24.332605,54.766659 17.745260,37.113262 11.095627,19.484781 
	C9.696278,15.775041 10.215153,10.108649 3.569914,10.800352 
	C3.427840,10.815140 3.130532,10.307749 3.080054,10.013984 
	C2.997225,9.531942 3.057624,9.025292 3.057624,8.737458 
	C15.352983,8.737458 27.551729,8.737458 39.750477,8.737458 
	C39.782490,9.221503 39.814503,9.705549 39.846516,10.189594 
	C37.714935,10.580967 35.583355,10.972340 33.268494,11.397365 
	C37.490891,23.640047 41.731415,35.935280 45.902657,48.615425 
z"/>
<path fill="#000000" opacity="1.000000" stroke="none" 
	d="
M48.468655,90.000000 
	C50.073330,81.816345 52.169647,73.638382 54.197216,65.443405 
	C54.532398,64.088669 54.566742,62.659492 54.392021,61.075928 
	C54.093048,60.073326 53.915691,59.158344 54.226917,58.461617 
	C56.847698,52.594681 59.557899,46.767689 61.885612,41.702480 
	C66.915443,56.875233 72.310974,73.151169 77.353256,89.713547 
	C67.645767,90.000000 58.291542,90.000000 48.468655,90.000000 
z"/>
<path fill="#FFEB00" opacity="1.000000" stroke="none" 
	d="
M528.885376,57.042244 
	C526.256836,45.289288 523.587891,33.545094 521.033875,21.775965 
	C520.522949,19.421522 519.482056,16.482079 520.395264,14.677737 
	C521.875732,11.752568 524.344666,8.263649 527.165710,7.324910 
	C531.645447,5.834206 536.643250,6.558153 539.718872,11.327280 
	C540.000000,15.024545 540.000000,19.049089 540.000000,23.536819 
	C539.334717,24.608885 538.233643,25.119053 538.070007,25.841574 
	C535.912048,35.366539 533.894043,44.923161 531.808350,54.464714 
	C531.676697,55.067108 531.275085,55.610481 530.591431,56.595306 
	C529.751038,57.020279 529.318237,57.031258 528.885376,57.042244 
z"/>
<path fill="#FFEB00" opacity="1.000000" stroke="none" 
	d="
M528.375000,89.999992 
	C527.394287,89.334503 526.903015,88.289200 526.163818,88.066353 
	C521.970825,86.802299 519.520569,83.279205 520.003296,78.874352 
	C520.565430,73.744957 523.232056,71.466164 528.060547,70.924232 
	C533.748779,70.285805 537.245850,72.704483 539.715332,77.329102 
	C540.000000,78.388893 540.000000,79.777779 539.718750,81.254723 
	C537.625549,84.911186 535.694458,88.337837 531.021484,88.632050 
	C530.985718,88.634300 531.005920,89.524437 531.000000,90.000000 
	C530.250000,90.000000 529.500000,90.000000 528.375000,89.999992 
z"/>
<path fill="#000000" opacity="1.000000" stroke="none" 
	d="
M531.491089,90.000000 
	C531.005920,89.524437 530.985718,88.634300 531.021484,88.632050 
	C535.694458,88.337837 537.625549,84.911186 539.718750,81.671387 
	C540.000000,84.588745 540.000000,87.177498 540.000000,90.000000 
	C537.329712,90.000000 534.655884,90.000000 531.491089,90.000000 
z"/>
<path fill="#FFEB00" opacity="1.000000" stroke="none" 
	d="
M492.042358,88.114807 
	C491.808929,88.591103 491.575500,89.067406 491.671021,89.771858 
	C490.933319,90.000000 489.866669,90.000000 488.399994,90.000000 
	C488.090698,89.614876 488.181366,89.229752 488.213074,88.147842 
	C489.850189,85.329063 491.126495,85.666283 492.042358,88.114807 
z"/>
<path fill="#FFEB00" opacity="1.000000" stroke="none" 
	d="
M366.882568,76.959900 
	C367.588379,62.812969 368.770111,48.666466 368.782837,34.518913 
	C368.788513,28.217684 366.768066,21.823271 365.052124,15.641903 
	C363.770142,11.023849 359.631042,9.965652 355.259399,10.004334 
	C351.046936,10.041609 347.346558,11.299319 345.907593,15.614044 
	C344.341278,20.310591 342.669495,25.111280 342.154694,29.983940 
	C341.511047,36.076118 341.976593,42.288086 342.005188,48.448147 
	C342.063202,60.947376 340.488068,73.733261 348.371429,84.879219 
	C348.808746,85.497536 348.878601,86.375755 349.354034,87.870338 
	C341.607330,87.844856 335.153717,85.617226 329.575867,81.010468 
	C321.485840,74.328880 319.011658,65.238602 317.780426,55.155384 
	C316.535919,44.963234 317.719299,35.478920 321.972229,26.278261 
	C327.564758,14.179639 337.601196,8.330589 350.374634,7.094948 
	C359.557892,6.206605 368.823395,6.923369 377.015625,11.647011 
	C386.737854,17.252827 391.905151,26.580227 392.690125,37.276585 
	C393.378265,46.653160 393.131775,56.618095 390.647339,65.589027 
	C386.665894,79.965347 376.442627,86.775085 362.511169,87.594231 
	C364.134766,84.773216 366.202484,82.419693 367.927612,79.837341 
	C368.263153,79.335068 367.265350,77.942055 366.882568,76.959900 
z"/>
<path fill="#FFEB00" opacity="1.000000" stroke="none" 
	d="
M274.833374,57.000618 
	C279.218628,65.303398 283.506500,73.660263 288.065887,81.866287 
	C289.054291,83.645256 291.017487,84.882645 292.707642,86.542267 
	C281.968536,86.542267 271.080780,86.542267 260.193024,86.542267 
	C260.116882,86.211578 260.040710,85.880890 259.964569,85.550201 
	C261.502594,85.278030 263.040619,85.005867 265.186829,84.626060 
	C261.138947,76.347832 257.161591,68.213860 252.575043,58.834003 
	C252.575043,68.273979 252.575043,76.489342 252.575043,84.746452 
	C254.290741,84.968033 256.113495,85.203445 257.936249,85.438850 
	C257.912231,85.780319 257.888245,86.121788 257.864258,86.463257 
	C246.626160,86.463257 235.388046,86.463257 224.149933,86.463257 
	C224.107529,86.079254 224.065125,85.695251 224.022720,85.311249 
	C225.832718,85.148727 227.642731,84.986206 229.728027,84.798958 
	C229.728027,58.417995 229.728027,32.006306 229.728027,5.220177 
	C227.524384,5.043603 225.265305,4.862587 223.006226,4.681572 
	C223.042160,4.278264 223.078079,3.874955 223.114014,3.471646 
	C232.559586,3.471646 242.005142,3.471646 252.000000,3.471646 
	C252.000000,11.736082 252.000000,20.171175 252.000000,28.606268 
	C252.000000,36.268055 251.944366,43.930603 252.048904,51.590965 
	C252.068817,53.050060 252.721909,54.500515 253.752579,56.157269 
	C259.005310,56.642345 260.403839,53.709633 260.939331,49.905449 
	C260.939331,49.905449 260.979950,49.980270 261.341003,49.970776 
	C265.585175,48.476887 268.840149,50.268723 272.114807,51.957779 
	C272.412598,52.420460 272.710388,52.883144 272.833130,53.873444 
	C273.383179,55.267578 274.108276,56.134098 274.833374,57.000618 
z"/>
<path fill="#FFEB00" opacity="1.000000" stroke="none" 
	d="
M110.174484,70.422272 
	C110.017189,64.862198 109.756126,59.689938 110.034935,54.546947 
	C110.665619,42.913246 117.699318,36.356674 128.257294,33.414730 
	C136.042068,31.245522 143.912292,31.507874 151.863449,33.833096 
	C160.107452,36.243958 166.953781,44.195107 166.942825,53.737617 
	C166.936234,59.470699 166.949036,65.311424 165.913727,70.911621 
	C164.164505,80.373505 157.415939,86.038292 148.481125,87.523857 
	C141.657257,88.658455 134.349091,87.882919 127.390060,86.954659 
	C118.163048,85.723892 113.282440,79.096481 110.174484,70.422272 
M133.000320,42.812782 
	C132.666870,52.226257 132.017029,61.643291 132.122894,71.051826 
	C132.182938,76.388542 132.417892,82.086128 138.317627,87.058037 
	C140.300995,84.324669 143.618088,81.849815 143.741028,79.225342 
	C144.309937,67.080086 144.057281,54.892479 143.913986,42.722221 
	C143.894302,41.049641 143.012405,39.301704 142.227005,37.740978 
	C140.445084,34.200035 137.016586,34.110569 134.932098,37.542095 
	C134.107376,38.899765 133.635300,40.471661 133.000320,42.812782 
z"/>
<path fill="#FFEB00" opacity="1.000000" stroke="none" 
	d="
M492.466766,88.063736 
	C491.126495,85.666283 489.850189,85.329063 488.055847,87.782944 
	C486.899048,88.070557 485.840424,88.026276 484.314606,87.571381 
	C481.319122,84.874542 479.014221,81.936684 474.956299,84.113197 
	C470.052185,80.974983 470.277649,75.681229 470.123413,71.004585 
	C469.745300,59.541290 469.999878,48.057129 469.999878,36.178864 
	C468.024628,36.070217 466.283051,35.974419 464.541443,35.878624 
	C464.325195,35.395035 464.108948,34.911446 463.892700,34.427856 
	C465.693542,33.726727 467.494354,33.025597 469.999786,32.050144 
	C469.999786,30.644199 469.976288,28.523600 470.003845,26.403666 
	C470.125702,17.028284 468.705414,19.804880 477.079895,17.111092 
	C481.524475,15.681417 486.210693,14.996739 490.798431,14.025825 
	C491.383606,13.901982 492.033020,14.081584 492.885376,14.135262 
	C492.885376,20.349352 492.885376,26.315294 492.885376,32.220245 
	C497.401367,34.732475 503.113708,30.781410 506.906616,35.797913 
	C502.483643,35.797913 498.060638,35.797913 493.005096,35.797913 
	C493.005096,50.456264 493.005096,64.712929 492.902466,79.719688 
	C492.850586,81.364685 492.901306,82.259575 492.952026,83.154472 
	C493.649170,83.065193 494.346344,82.975906 495.043488,82.886627 
	C497.781158,82.328659 500.518829,81.770699 503.628296,81.356445 
	C504.014343,81.704826 504.028625,81.909508 504.042938,82.114182 
	C502.055847,87.351418 497.918396,88.523201 492.466766,88.063736 
z"/>
<path fill="#FFEB00" opacity="1.000000" stroke="none" 
	d="
M176.000000,57.000168 
	C176.000000,49.857246 176.000000,43.214283 176.000000,36.651894 
	C173.392944,36.001179 171.067169,35.420673 168.741379,34.840168 
	C168.894379,34.305828 169.047363,33.771492 169.200363,33.237152 
	C178.643219,33.237152 188.086075,33.237152 197.866974,33.237152 
	C197.946060,35.004272 198.024017,36.746059 198.131668,39.151283 
	C203.914764,32.291470 210.710175,30.312227 218.706955,33.292049 
	C223.394501,35.038750 224.525894,39.279076 224.899139,43.499733 
	C225.289093,47.909359 223.845688,52.256657 219.836227,54.447838 
	C216.097824,56.490879 211.628082,56.545143 207.825912,54.198544 
	C202.579620,50.960678 203.098633,44.982830 208.503983,41.679806 
	C209.291992,41.198288 209.356979,39.533588 209.756516,38.416374 
	C208.492142,38.115910 206.938568,37.189339 206.010880,37.617825 
	C200.484070,40.170494 198.623322,45.804562 198.261841,50.810448 
	C197.450958,62.040176 198.007843,73.368668 198.007843,84.848816 
	C200.941101,84.981895 203.433914,85.094994 205.926727,85.208092 
	C205.907578,85.619873 205.888428,86.031654 205.869293,86.443436 
	C193.626434,86.443436 181.383575,86.443436 169.140701,86.443436 
	C169.098877,86.064911 169.057053,85.686386 169.015228,85.307854 
	C171.149994,85.148651 173.284775,84.989456 176.000000,84.786964 
	C176.000000,75.723869 176.000000,66.612000 176.000000,57.000168 
z"/>
<path fill="#FFEB00" opacity="1.000000" stroke="none" 
	d="
M270.957764,42.885368 
	C272.400177,40.781773 273.842651,38.678173 275.349457,36.480728 
	C273.003021,36.053307 270.362518,35.572308 267.721985,35.091312 
	C267.844177,34.397461 267.966400,33.703609 268.088623,33.009758 
	C275.131989,33.009758 282.175720,32.981483 289.218170,33.061764 
	C289.801117,33.068413 290.752808,33.737740 290.847534,34.230888 
	C290.941406,34.719326 290.030762,35.933708 289.793335,35.875809 
	C281.217743,33.784660 278.030975,42.505638 271.353912,44.600876 
	C270.995422,43.875996 270.976593,43.380680 270.957764,42.885368 
z"/>
<path fill="#FFEB00" opacity="1.000000" stroke="none" 
	d="
M366.562439,77.117569 
	C367.265350,77.942055 368.263153,79.335068 367.927612,79.837341 
	C366.202484,82.419693 364.134766,84.773216 362.093628,87.519913 
	C360.067627,87.640228 358.134674,87.447273 357.160187,87.349998 
	C360.217773,83.958214 363.230042,80.616714 366.562439,77.117569 
z"/>
<path fill="#FFEB00" opacity="1.000000" stroke="none" 
	d="
M270.599854,42.939831 
	C270.976593,43.380680 270.995422,43.875996 271.028442,44.742790 
	C271.363953,47.162876 271.685272,49.211479 272.060699,51.608932 
	C268.840149,50.268723 265.585175,48.476887 261.303589,49.950447 
	C264.017426,47.624508 267.129669,45.309402 270.599854,42.939831 
z"/>
<path fill="#FFEB00" opacity="1.000000" stroke="none" 
	d="
M528.926086,57.459011 
	C529.318237,57.031258 529.751038,57.020279 530.508545,57.004951 
	C531.213806,59.840557 531.781494,62.677715 531.823914,65.522705 
	C531.832886,66.123985 529.919189,66.753914 527.513977,68.197098 
	C528.138367,63.761295 528.552551,60.818539 528.926086,57.459011 
z"/>
<path fill="#FFEB00" opacity="1.000000" stroke="none" 
	d="
M475.100861,84.442200 
	C479.014221,81.936684 481.319122,84.874542 483.923798,87.497055 
	C481.081940,86.812637 478.163696,85.791916 475.100861,84.442200 
z"/>
<path fill="#FFEB00" opacity="1.000000" stroke="none" 
	d="
M260.623657,50.037239 
	C260.403839,53.709633 259.005310,56.642345 254.187225,56.125534 
	C256.070770,53.983997 258.189392,52.076511 260.623657,50.037239 
z"/>
<path fill="#FFEB00" opacity="1.000000" stroke="none" 
	d="
M504.360382,81.963120 
	C504.028625,81.909508 504.014343,81.704826 503.978455,81.193153 
	C504.024963,78.183189 503.407990,75.137230 507.071869,75.123520 
	C506.599731,76.895325 506.299713,77.864342 505.999664,78.833359 
	C505.559052,79.826256 505.118439,80.819160 504.360382,81.963120 
z"/>
<path fill="#FFEB00" opacity="1.000000" stroke="none" 
	d="
M494.930542,82.589676 
	C494.346344,82.975906 493.649170,83.065193 492.952026,83.154472 
	C492.901306,82.259575 492.850586,81.364685 492.924255,80.181145 
	C493.638306,80.692581 494.227936,81.492661 494.930542,82.589676 
z"/>
<path fill="#FFEB00" opacity="1.000000" stroke="none" 
	d="
M274.839325,56.683777 
	C274.108276,56.134098 273.383179,55.267578 272.883423,54.176674 
	C273.687592,54.757175 274.266449,55.562054 274.839325,56.683777 
z"/>
<path fill="#FFEB00" opacity="1.000000" stroke="none" 
	d="
M506.351990,78.903732 
	C506.299713,77.864342 506.599731,76.895325 507.365295,75.699615 
	C507.455292,76.639984 507.079773,77.807037 506.351990,78.903732 
z"/>
<path fill="#FFEB00" opacity="1.000000" stroke="none" 
	d="
M508.829773,72.368828 
	C508.094360,72.708153 507.358948,73.047478 506.623535,73.386803 
	C506.722809,72.627716 506.822113,71.868637 507.635803,71.460907 
	C508.510040,71.997787 508.669891,72.183304 508.829773,72.368828 
z"/>
<path fill="#FFEB00" opacity="1.000000" stroke="none" 
	d="
M508.899567,72.125961 
	C508.669891,72.183304 508.510040,71.997787 508.174805,71.489464 
	C508.322723,71.405472 508.646057,71.644279 508.899567,72.125961 
z"/>
<path fill="#000000" opacity="1.000000" stroke="none" 
	d="
M133.001495,42.379398 
	C133.635300,40.471661 134.107376,38.899765 134.932098,37.542095 
	C137.016586,34.110569 140.445084,34.200035 142.227005,37.740978 
	C143.012405,39.301704 143.894302,41.049641 143.913986,42.722221 
	C144.057281,54.892479 144.309937,67.080086 143.741028,79.225342 
	C143.618088,81.849815 140.300995,84.324669 138.317627,87.058037 
	C132.417892,82.086128 132.182938,76.388542 132.122894,71.051826 
	C132.017029,61.643291 132.666870,52.226257 133.001495,42.379398 
z"/>
</svg>